<svg xmlns="http://www.w3.org/2000/svg" viewBox="0 0 170 170">
  <rect width="170" height="170" rx="28" fill="#0d0d0f"/>
  <!-- guitar strings background -->
  <line x1="10" y1="52" x2="160" y2="52" stroke="#1c1c20" stroke-width="1.5"/>
  <line x1="10" y1="72" x2="160" y2="72" stroke="#1c1c20" stroke-width="1.5"/>
  <line x1="10" y1="92" x2="160" y2="92" stroke="#1c1c20" stroke-width="1.5"/>
  <line x1="10" y1="112" x2="160" y2="112" stroke="#1c1c20" stroke-width="1.5"/>
  <line x1="10" y1="132" x2="160" y2="132" stroke="#1c1c20" stroke-width="1.5"/>
  <line x1="10" y1="152" x2="160" y2="152" stroke="#1c1c20" stroke-width="1.5"/>
  <!-- G marker stroke -->
  <path d="M118 38 C118 38 75 28 55 52 C35 76 37 118 61 132 C85 146 119 136 125 116 C131 96 121 88 103 88 L81 88"
        fill="none" stroke="#f0f0ee" stroke-width="11" stroke-linecap="round" stroke-linejoin="round"/>
  <!-- highlight -->
  <path d="M118 38 C118 38 75 28 55 52 C35 76 37 118 61 132"
        fill="none" stroke="white" stroke-width="3" stroke-linecap="round" opacity="0.15"/>
  <!-- fret dot accent -->
  <rect x="75" y="85" width="14" height="6" rx="3" fill="#2dd4a8"/>
</svg>
